<svg xmlns="http://www.w3.org/2000/svg" viewBox="0 0 92 92">
  <defs>
    <clipPath id="a">
      <path d="M0 .113h91.887V92H0V.113z"/>
    </clipPath>
  </defs>
  <g clip-path="url(#a)" transform="matrix(1.33333 0 0 -1.33333 -12.113 103.887)">
    <path fill="#f03c2e" d="M90.156 41.965l-39.125-39.124c-2.254-2.252-5.907-2.252-8.16 0l-8.126 8.126 10.305 10.305c2.402-.836 5.149-.273 7.063 1.639 1.92 1.92 2.48 4.687 1.633 7.098l9.93 9.93c2.41-.848 5.179-.289 7.097 1.631 2.684 2.684 2.684 7.037 0 9.723-2.683 2.684-7.036 2.684-9.723 0-2.02-2.02-2.523-4.984-1.508-7.473l-9.268-9.267-.003 24.37c.654.328 1.273.762 1.82 1.309 2.682 2.683 2.682 7.035 0 9.723-2.684 2.683-7.037 2.683-9.723 0-2.684-2.688-2.684-7.04 0-9.723.664-.662 1.43-1.162 2.25-1.496V28.199c-.82-.332-1.586-.832-2.25-1.496-2.035-2.032-2.527-5.019-1.494-7.52L21.891 8.885 1.887 28.887c-2.254 2.254-2.254 5.907 0 8.16l39.125 39.125c2.254 2.254 5.906 2.254 8.16 0l38.984-38.984c2.254-2.254 2.254-5.907 0-8.16"/>
  </g>
</svg>

