<?xml version="1.0" encoding="UTF-8"?>
<svg width="256px" height="256px" viewBox="0 0 256 256" version="1.1" xmlns="http://www.w3.org/2000/svg" preserveAspectRatio="xMidYMid">
    <title>TypeScript</title>
    <g>
        <rect fill="#3178C6" x="0" y="0" width="256" height="256" rx="28"></rect>
        <path d="M149.187033,190.068287 L149.187033,210.495413 C152.94948,211.836669 157.394649,212.818252 162.52271,213.440165 C167.650771,214.062078 173.069967,214.373034 178.780301,214.373034 C184.335664,214.373034 189.639599,213.96024 194.692108,213.134655 C199.744618,212.309069 204.227899,210.909999 208.141954,208.937441 C212.05601,206.964884 215.215072,204.367269 217.619141,201.144595 C220.02321,197.921922 221.225245,193.962939 221.225245,189.267643 C221.225245,185.951687 220.616547,183.050007 219.399152,180.562605 C218.181757,178.075203 216.387014,175.862302 214.014924,173.923902 C211.642834,171.985501 208.717644,170.229508 205.239355,168.655922 C201.761066,167.082337 197.785662,165.578818 193.313145,164.145365 C189.88293,163.037126 186.761717,161.979478 183.949506,160.972421 C181.137294,159.965363 178.721106,158.947895 176.700897,157.920016 C174.680688,156.892137 173.098067,155.813124 171.953033,154.682976 C170.807999,153.552828 170.235482,152.296198 170.235482,150.913085 C170.235482,149.633035 170.644603,148.487397 171.462844,147.476171 C172.281085,146.464944 173.415112,145.598272 174.864925,144.876153 C176.314738,144.154034 178.099481,143.596186 180.219154,143.202609 C182.338827,142.809032 184.674057,142.612244 187.224843,142.612244 C189.134516,142.612244 191.14861,142.741079 193.267124,142.998749 C195.385639,143.256419 197.51321,143.642577 199.649837,144.157223 C201.786464,144.671869 203.881704,145.315104 205.935557,146.086929 C207.989411,146.858753 209.91402,147.759166 211.709384,148.788168 L211.709384,129.758473 C208.149724,128.469546 204.387122,127.516352 200.421578,126.89889 C196.456034,126.281428 192.013725,125.972697 187.09465,125.972697 C181.592072,125.972697 176.36803,126.420924 171.422525,127.317377 C166.47702,128.213831 162.156819,129.628458 158.461922,131.561258 C154.767024,133.494059 151.821769,136.010759 149.626157,139.111357 C147.430544,142.211956 146.332738,145.938939 146.332738,150.292307 C146.332738,156.038067 148.163463,160.852954 151.824912,164.736968 C155.486361,168.620982 161.077498,171.847434 168.598324,174.416513 C172.181769,175.628604 175.408718,176.789403 178.279171,177.89891 C181.149624,179.008417 183.605071,180.14724 185.645513,181.315379 C187.685955,182.483519 189.264407,183.703049 190.38087,184.973969 C191.497333,186.244889 192.055564,187.661741 192.055564,189.224524 C192.055564,190.452555 191.687879,191.563185 190.952508,192.556414 C190.217137,193.549644 189.156087,194.394743 187.769358,195.091712 C186.382629,195.788681 184.690812,196.32889 182.693907,196.712339 C180.697002,197.095788 178.395006,197.287512 175.78792,197.287512 C170.235482,197.287512 164.797254,196.366227 159.473236,194.523658 C154.149218,192.681089 149.395858,190.068287 145.213156,186.685254 L145.213156,186.685254 L149.187033,190.068287 Z M109.604009,145.516608 L138.678585,145.516608 L138.678585,128.4 L61.2,128.4 L61.2,145.516608 L90.1745757,145.516608 L90.1745757,213.04 L109.604009,213.04 L109.604009,145.516608 Z" fill="#FFFFFF" fill-rule="nonzero"></path>
    </g>
</svg>

